<svg width="960" height="540" xmlns="http://www.w3.org/2000/svg" xmlns:xlink="http://www.w3.org/1999/xlink" overflow="hidden"><defs><filter id="fx0" x="-10%" y="-10%" width="120%" height="120%" filterUnits="userSpaceOnUse" primitiveUnits="userSpaceOnUse"><feComponentTransfer color-interpolation-filters="sRGB"><feFuncR type="discrete" tableValues="0.00392157 0.00392157"/><feFuncG type="discrete" tableValues="0.0196078 0.0196078"/><feFuncB type="discrete" tableValues="0.054902 0.054902"/><feFuncA type="linear" slope="0.501961" intercept="0"/></feComponentTransfer><feGaussianBlur stdDeviation="7.15716 7.14286"/></filter><filter id="fx1" x="-10%" y="-10%" width="120%" height="120%" filterUnits="userSpaceOnUse" primitiveUnits="userSpaceOnUse"><feComponentTransfer color-interpolation-filters="sRGB"><feFuncR type="discrete" tableValues="0.00392157 0.00392157"/><feFuncG type="discrete" tableValues="0.0196078 0.0196078"/><feFuncB type="discrete" tableValues="0.054902 0.054902"/><feFuncA type="linear" slope="0.501961" intercept="0"/></feComponentTransfer><feGaussianBlur stdDeviation="7.1161 7.16934"/></filter><filter id="fx2" x="-10%" y="-10%" width="120%" height="120%" filterUnits="userSpaceOnUse" primitiveUnits="userSpaceOnUse"><feComponentTransfer color-interpolation-filters="sRGB"><feFuncR type="discrete" tableValues="0.00392157 0.00392157"/><feFuncG type="discrete" tableValues="0.0196078 0.0196078"/><feFuncB type="discrete" tableValues="0.054902 0.054902"/><feFuncA type="linear" slope="0.501961" intercept="0"/></feComponentTransfer><feGaussianBlur stdDeviation="7.13101 7.13115"/></filter><filter id="fx3" x="-10%" y="-10%" width="120%" height="120%" filterUnits="userSpaceOnUse" primitiveUnits="userSpaceOnUse"><feComponentTransfer color-interpolation-filters="sRGB"><feFuncR type="discrete" tableValues="0 0"/><feFuncG type="discrete" tableValues="0 0"/><feFuncB type="discrete" tableValues="0 0"/><feFuncA type="linear" slope="0.2" intercept="0"/></feComponentTransfer><feGaussianBlur stdDeviation="1 1"/></filter><filter id="fx4" x="-10%" y="-10%" width="120%" height="120%" filterUnits="userSpaceOnUse" primitiveUnits="userSpaceOnUse"><feComponentTransfer color-interpolation-filters="sRGB"><feFuncR type="discrete" tableValues="0 0"/><feFuncG type="discrete" tableValues="0 0"/><feFuncB type="discrete" tableValues="0 0"/><feFuncA type="linear" slope="0.2" intercept="0"/></feComponentTransfer><feGaussianBlur stdDeviation="1 1"/></filter><filter id="fx5" x="-10%" y="-10%" width="120%" height="120%" filterUnits="userSpaceOnUse" primitiveUnits="userSpaceOnUse"><feComponentTransfer color-interpolation-filters="sRGB"><feFuncR type="discrete" tableValues="0 0"/><feFuncG type="discrete" tableValues="0 0"/><feFuncB type="discrete" tableValues="0 0"/><feFuncA type="linear" slope="0.2" intercept="0"/></feComponentTransfer><feGaussianBlur stdDeviation="1 1"/></filter><filter id="fx6" x="-10%" y="-10%" width="120%" height="120%" filterUnits="userSpaceOnUse" primitiveUnits="userSpaceOnUse"><feComponentTransfer color-interpolation-filters="sRGB"><feFuncR type="discrete" tableValues="0 0"/><feFuncG type="discrete" tableValues="0 0"/><feFuncB type="discrete" tableValues="0 0"/><feFuncA type="linear" slope="0.2" intercept="0"/></feComponentTransfer><feGaussianBlur stdDeviation="1 1"/></filter><filter id="fx7" x="-10%" y="-10%" width="120%" height="120%" filterUnits="userSpaceOnUse" primitiveUnits="userSpaceOnUse"><feComponentTransfer color-interpolation-filters="sRGB"><feFuncR type="discrete" tableValues="0 0"/><feFuncG type="discrete" tableValues="0 0"/><feFuncB type="discrete" tableValues="0 0"/><feFuncA type="linear" slope="0.2" intercept="0"/></feComponentTransfer><feGaussianBlur stdDeviation="1 1"/></filter><filter id="fx8" x="-10%" y="-10%" width="120%" height="120%" filterUnits="userSpaceOnUse" primitiveUnits="userSpaceOnUse"><feComponentTransfer color-interpolation-filters="sRGB"><feFuncR type="discrete" tableValues="0 0"/><feFuncG type="discrete" tableValues="0 0"/><feFuncB type="discrete" tableValues="0 0"/><feFuncA type="linear" slope="0.2" intercept="0"/></feComponentTransfer><feGaussianBlur stdDeviation="1 1"/></filter><filter id="fx9" x="-10%" y="-10%" width="120%" height="120%" filterUnits="userSpaceOnUse" primitiveUnits="userSpaceOnUse"><feComponentTransfer color-interpolation-filters="sRGB"><feFuncR type="discrete" tableValues="0 0"/><feFuncG type="discrete" tableValues="0 0"/><feFuncB type="discrete" tableValues="0 0"/><feFuncA type="linear" slope="0.2" intercept="0"/></feComponentTransfer><feGaussianBlur stdDeviation="1 1"/></filter><filter id="fx10" x="-10%" y="-10%" width="120%" height="120%" filterUnits="userSpaceOnUse" primitiveUnits="userSpaceOnUse"><feComponentTransfer color-interpolation-filters="sRGB"><feFuncR type="discrete" tableValues="0 0"/><feFuncG type="discrete" tableValues="0 0"/><feFuncB type="discrete" tableValues="0 0"/><feFuncA type="linear" slope="0.2" intercept="0"/></feComponentTransfer><feGaussianBlur stdDeviation="1 1"/></filter><filter id="fx11" x="-10%" y="-10%" width="120%" height="120%" filterUnits="userSpaceOnUse" primitiveUnits="userSpaceOnUse"><feComponentTransfer color-interpolation-filters="sRGB"><feFuncR type="discrete" tableValues="0 0"/><feFuncG type="discrete" tableValues="0 0"/><feFuncB type="discrete" tableValues="0 0"/><feFuncA type="linear" slope="0.2" intercept="0"/></feComponentTransfer><feGaussianBlur stdDeviation="1 1"/></filter><filter id="fx12" x="-10%" y="-10%" width="120%" height="120%" filterUnits="userSpaceOnUse" primitiveUnits="userSpaceOnUse"><feComponentTransfer color-interpolation-filters="sRGB"><feFuncR type="discrete" tableValues="0 0"/><feFuncG type="discrete" tableValues="0 0"/><feFuncB type="discrete" tableValues="0 0"/><feFuncA type="linear" slope="0.2" intercept="0"/></feComponentTransfer><feGaussianBlur stdDeviation="1 1"/></filter><filter id="fx13" x="-10%" y="-10%" width="120%" height="120%" filterUnits="userSpaceOnUse" primitiveUnits="userSpaceOnUse"><feComponentTransfer color-interpolation-filters="sRGB"><feFuncR type="discrete" tableValues="0 0"/><feFuncG type="discrete" tableValues="0 0"/><feFuncB type="discrete" tableValues="0 0"/><feFuncA type="linear" slope="0.2" intercept="0"/></feComponentTransfer><feGaussianBlur stdDeviation="1 1"/></filter><filter id="fx14" x="-10%" y="-10%" width="120%" height="120%" filterUnits="userSpaceOnUse" primitiveUnits="userSpaceOnUse"><feComponentTransfer color-interpolation-filters="sRGB"><feFuncR type="discrete" tableValues="0 0"/><feFuncG type="discrete" tableValues="0 0"/><feFuncB type="discrete" tableValues="0 0"/><feFuncA type="linear" slope="0.2" intercept="0"/></feComponentTransfer><feGaussianBlur stdDeviation="1 1"/></filter><filter id="fx15" x="-10%" y="-10%" width="120%" height="120%" filterUnits="userSpaceOnUse" primitiveUnits="userSpaceOnUse"><feComponentTransfer color-interpolation-filters="sRGB"><feFuncR type="discrete" tableValues="0 0"/><feFuncG type="discrete" tableValues="0 0"/><feFuncB type="discrete" tableValues="0 0"/><feFuncA type="linear" slope="0.2" intercept="0"/></feComponentTransfer><feGaussianBlur stdDeviation="1 1"/></filter><filter id="fx16" x="-10%" y="-10%" width="120%" height="120%" filterUnits="userSpaceOnUse" primitiveUnits="userSpaceOnUse"><feComponentTransfer color-interpolation-filters="sRGB"><feFuncR type="discrete" tableValues="0 0"/><feFuncG type="discrete" tableValues="0 0"/><feFuncB type="discrete" tableValues="0 0"/><feFuncA type="linear" slope="0.2" intercept="0"/></feComponentTransfer><feGaussianBlur stdDeviation="1 1"/></filter><filter id="fx17" x="-10%" y="-10%" width="120%" height="120%" filterUnits="userSpaceOnUse" primitiveUnits="userSpaceOnUse"><feComponentTransfer color-interpolation-filters="sRGB"><feFuncR type="discrete" tableValues="0 0"/><feFuncG type="discrete" tableValues="0 0"/><feFuncB type="discrete" tableValues="0 0"/><feFuncA type="linear" slope="0.2" intercept="0"/></feComponentTransfer><feGaussianBlur stdDeviation="1 1"/></filter><filter id="fx18" x="-10%" y="-10%" width="120%" height="120%" filterUnits="userSpaceOnUse" primitiveUnits="userSpaceOnUse"><feComponentTransfer color-interpolation-filters="sRGB"><feFuncR type="discrete" tableValues="0 0"/><feFuncG type="discrete" tableValues="0 0"/><feFuncB type="discrete" tableValues="0 0"/><feFuncA type="linear" slope="0.2" intercept="0"/></feComponentTransfer><feGaussianBlur stdDeviation="1 1"/></filter><filter id="fx19" x="-10%" y="-10%" width="120%" height="120%" filterUnits="userSpaceOnUse" primitiveUnits="userSpaceOnUse"><feComponentTransfer color-interpolation-filters="sRGB"><feFuncR type="discrete" tableValues="0 0"/><feFuncG type="discrete" tableValues="0 0"/><feFuncB type="discrete" tableValues="0 0"/><feFuncA type="linear" slope="0.2" intercept="0"/></feComponentTransfer><feGaussianBlur stdDeviation="1 1"/></filter><filter id="fx20" x="-10%" y="-10%" width="120%" height="120%" filterUnits="userSpaceOnUse" primitiveUnits="userSpaceOnUse"><feComponentTransfer color-interpolation-filters="sRGB"><feFuncR type="discrete" tableValues="0 0"/><feFuncG type="discrete" tableValues="0 0"/><feFuncB type="discrete" tableValues="0 0"/><feFuncA type="linear" slope="0.2" intercept="0"/></feComponentTransfer><feGaussianBlur stdDeviation="1 1"/></filter><filter id="fx21" x="-10%" y="-10%" width="120%" height="120%" filterUnits="userSpaceOnUse" primitiveUnits="userSpaceOnUse"><feComponentTransfer color-interpolation-filters="sRGB"><feFuncR type="discrete" tableValues="0 0"/><feFuncG type="discrete" tableValues="0 0"/><feFuncB type="discrete" tableValues="0 0"/><feFuncA type="linear" slope="0.2" intercept="0"/></feComponentTransfer><feGaussianBlur stdDeviation="1 1"/></filter><filter id="fx22" x="-10%" y="-10%" width="120%" height="120%" filterUnits="userSpaceOnUse" primitiveUnits="userSpaceOnUse"><feComponentTransfer color-interpolation-filters="sRGB"><feFuncR type="discrete" tableValues="0 0"/><feFuncG type="discrete" tableValues="0 0"/><feFuncB type="discrete" tableValues="0 0"/><feFuncA type="linear" slope="0.2" intercept="0"/></feComponentTransfer><feGaussianBlur stdDeviation="1 1"/></filter><clipPath id="clip23"><rect x="0" y="0" width="960" height="540"/></clipPath><clipPath id="clip24"><rect x="0" y="0" width="143" height="120"/></clipPath><clipPath id="clip25"><rect x="1" y="1" width="92" height="47"/></clipPath><clipPath id="clip26"><rect x="13" y="9" width="23" height="20"/></clipPath><clipPath id="clip27"><rect x="1" y="1" width="93" height="47"/></clipPath><clipPath id="clip28"><rect x="13" y="9" width="16" height="20"/></clipPath><clipPath id="clip29"><rect x="1" y="1" width="92" height="47"/></clipPath><clipPath id="clip30"><rect x="12" y="9" width="17" height="20"/></clipPath><clipPath id="clip31"><rect x="1" y="1" width="92" height="47"/></clipPath><clipPath id="clip32"><rect x="12" y="9" width="16" height="20"/></clipPath><clipPath id="clip33"><rect x="1" y="1" width="93" height="47"/></clipPath><clipPath id="clip34"><rect x="13" y="9" width="16" height="20"/></clipPath><clipPath id="clip35"><rect x="1" y="1" width="93" height="47"/></clipPath><clipPath id="clip36"><rect x="12" y="9" width="16" height="20"/></clipPath><clipPath id="clip37"><rect x="1" y="1" width="92" height="47"/></clipPath><clipPath id="clip38"><rect x="12" y="9" width="17" height="20"/></clipPath><clipPath id="clip39"><rect x="1" y="1" width="92" height="47"/></clipPath><clipPath id="clip40"><rect x="13" y="9" width="16" height="20"/></clipPath><clipPath id="clip41"><rect x="1" y="1" width="93" height="47"/></clipPath><clipPath id="clip42"><rect x="12" y="9" width="16" height="20"/></clipPath><clipPath id="clip43"><rect x="1" y="1" width="93" height="47"/></clipPath><clipPath id="clip44"><rect x="13" y="9" width="10" height="20"/></clipPath></defs><g clip-path="url(#clip23)"><rect x="0" y="0" width="960" height="540" fill="#01135D"/><g filter="url(#fx0)" transform="matrix(6.98601 0 0 7 -150 -150)"><g clip-path="url(#clip24)" transform="translate(-3.55271e-15 0)"><path d="M21.4715 98.5714 21.4715 93.8678C40.4352 93.135 58.2198 85.2991 71.5516 71.8009 84.8978 58.2891 92.4925 40.4011 92.9402 21.4286L121.385 21.4286C121.259 29.0183 120.293 36.5709 118.506 43.9494 116.765 51.1151 114.251 58.0716 111.009 64.6972 107.814 71.2194 103.937 77.3857 99.441 83.0928 94.9681 88.764 89.9128 93.9522 84.357 98.5714Z" fill="#022376" fill-rule="evenodd"/></g></g><path d="M0 540 0 507.075C132.481 501.945 256.724 447.094 349.861 352.606 443.097 258.024 496.154 132.808 499.281 0L698 0C697.114 53.1282 690.368 105.997 677.887 157.646 665.722 207.806 648.161 256.501 625.512 302.88 603.192 348.536 576.103 391.7 544.696 431.65 513.449 471.348 478.132 507.665 439.319 540Z" fill="#022376" fill-rule="evenodd"/><g filter="url(#fx1)" transform="matrix(7.02632 0 0 6.97414 -150 -150)"><g><path d="M21.3483 65.7855C32.6517 65.0728 43.2893 60.1524 51.196 51.9796 59.1344 43.8029 63.768 32.9401 64.1939 21.508L92.5094 21.508C92.0631 40.5851 84.4993 58.5727 71.2122 72.1591 57.9395 85.734 40.2329 93.611 21.3483 94.3486Z" fill="#023290" fill-rule="evenodd"/></g></g><path d="M0 308.797C79.4214 303.827 154.164 269.511 209.719 212.513 265.497 155.488 298.054 79.7289 301.046 0L500 0C496.865 133.046 443.719 258.494 350.36 353.248 257.101 447.921 132.689 502.856 0 508Z" fill="#023290" fill-rule="evenodd"/><g filter="url(#fx2)" transform="matrix(7.01163 0 0 7.01149 -150 -150)"><g><path d="M21.393 21.3934 64.4644 21.3934C64.0355 32.7719 59.3769 43.5835 51.3963 51.7217 43.4486 59.8563 32.7556 64.7539 21.393 65.4639Z" fill="#0342A9" fill-rule="evenodd"/></g></g><path d="M0 0 302 0C298.993 79.78 266.329 155.586 210.372 212.647 154.646 269.682 79.6704 304.022 0 309Z" fill="#0342A9" fill-rule="evenodd"/><text fill="#FFFFFF" font-family="1,1_MSFontService,sans-serif" font-weight="900" font-size="43" transform="translate(89.7953 118)">Model Pipeline</text><text fill="#FFFFFF" font-family="3,3_MSFontService,sans-serif" font-weight="400" font-size="17" transform="translate(937.183 525)">8</text><g clip-path="url(#clip25)" filter="url(#fx3)" transform="translate(724 254)"><g><path d="M4 4 76.8677 4 90 24.5 76.8677 45 4 45Z" fill="#027190" fill-rule="evenodd"/></g></g><g clip-path="url(#clip26)" filter="url(#fx4)" transform="translate(741 258)"><g><path d="M4.275-13.3 4.275 0 2.907 0 2.907-11.818 0.779-10.868 0.779-12.122 3.42-13.3ZM11.9367 0.19C11.1767 0.19 10.4768 0.0221667 9.83717-0.3135 9.1975-0.649167 8.64967-1.11783 8.19367-1.7195 7.73767-2.32117 7.383-3.04317 7.12967-3.8855 6.87633-4.72783 6.74967-5.64933 6.74967-6.65 6.74967-7.65067 6.87633-8.57217 7.12967-9.4145 7.383-10.2568 7.74083-10.9788 8.20317-11.5805 8.6655-12.1822 9.21333-12.6508 9.84667-12.9865 10.48-13.3222 11.1767-13.49 11.9367-13.49 12.6967-13.49 13.3965-13.3222 14.0362-12.9865 14.6758-12.6508 15.2237-12.1822 15.6797-11.5805 16.1357-10.9788 16.4903-10.2568 16.7437-9.4145 16.997-8.57217 17.1237-7.65067 17.1237-6.65 17.1237-5.64933 16.997-4.72783 16.7437-3.8855 16.4903-3.04317 16.1357-2.32117 15.6797-1.7195 15.2237-1.11783 14.6758-0.649167 14.0362-0.3135 13.3965 0.0221667 12.6967 0.19 11.9367 0.19ZM11.9367-1.045C13.0893-1.045 14.0108-1.55483 14.7012-2.5745 15.3915-3.59417 15.7367-4.95267 15.7367-6.65 15.7367-8.34733 15.3883-9.70583 14.6917-10.7255 13.995-11.7452 13.0767-12.255 11.9367-12.255 10.7967-12.255 9.87833-11.7452 9.18167-10.7255 8.485-9.70583 8.13667-8.34733 8.13667-6.65 8.13667-4.95267 8.485-3.59417 9.18167-2.5745 9.87833-1.55483 10.7967-1.045 11.9367-1.045Z" fill="#FFFFFF" transform="translate(15.4642 26)"/></g></g><path d="M727 258 799.868 258 813 278.5 799.868 299 727 299Z" fill="#027190" fill-rule="evenodd"/><text fill="#FFFFFF" font-family="3,3_MSFontService,sans-serif" font-weight="400" font-size="19" transform="translate(755.464 284)">10</text><g clip-path="url(#clip27)" filter="url(#fx5)" transform="translate(654 254)"><g><path d="M4 4 77.8677 4 91 24.5 77.8677 45 4 45Z" fill="#023290" fill-rule="evenodd"/></g></g><g clip-path="url(#clip28)" filter="url(#fx6)" transform="translate(672 258)"><g><path d="M5.472-13.452C6.232-13.452 6.93183-13.2968 7.5715-12.9865 8.21117-12.6762 8.759-12.2392 9.215-11.6755 9.671-11.1118 10.0288-10.4405 10.2885-9.6615 10.5482-8.8825 10.678-8.03067 10.678-7.106 10.678-6.01667 10.5355-5.0255 10.2505-4.1325 9.9655-3.2395 9.56333-2.47633 9.044-1.843 8.52467-1.20967 7.89767-0.718833 7.163-0.3705 6.42833-0.0221667 5.61133 0.152 4.712 0.152 4.16733 0.152 3.6195 0.0728333 3.0685-0.0855 2.5175-0.243833 2.02667-0.462333 1.596-0.741L2.28-1.805C2.67267-1.577 3.0875-1.39967 3.5245-1.273 3.9615-1.14633 4.39533-1.083 4.826-1.083 6.18133-1.083 7.26117-1.60867 8.0655-2.66 8.86983-3.71133 9.28467-5.149 9.31-6.973 8.816-6.33967 8.22383-5.84567 7.5335-5.491 6.84317-5.13633 6.137-4.959 5.415-4.959 4.769-4.959 4.17367-5.0635 3.629-5.2725 3.08433-5.4815 2.61567-5.76967 2.223-6.137 1.83033-6.50433 1.52317-6.94133 1.3015-7.448 1.07983-7.95467 0.969-8.50567 0.969-9.101 0.969-9.72167 1.083-10.3012 1.311-10.8395 1.539-11.3778 1.8525-11.837 2.2515-12.217 2.6505-12.597 3.1255-12.8978 3.6765-13.1195 4.2275-13.3412 4.826-13.452 5.472-13.452ZM5.605-6.08C6.289-6.08 6.954-6.25417 7.6-6.6025 8.246-6.95083 8.80333-7.429 9.272-8.037 9.13267-9.30367 8.721-10.3233 8.037-11.096 7.353-11.8687 6.50433-12.255 5.491-12.255 4.59167-12.255 3.84117-11.9573 3.2395-11.362 2.63783-10.7667 2.337-10.0257 2.337-9.139 2.337-8.25233 2.64417-7.52083 3.2585-6.9445 3.87283-6.36817 4.655-6.08 5.605-6.08Z" fill="#FFFFFF" transform="translate(15.1641 26)"/></g></g><path d="M657 258 730.868 258 744 278.5 730.868 299 657 299Z" fill="#023290" fill-rule="evenodd"/><text fill="#FFFFFF" font-family="3,3_MSFontService,sans-serif" font-weight="400" font-size="19" transform="translate(686.164 284)">9</text><g clip-path="url(#clip29)" filter="url(#fx7)" transform="translate(585 254)"><g><path d="M4 4 76.8677 4 90 24.5 76.8677 45 4 45Z" fill="#023290" fill-rule="evenodd"/></g></g><g clip-path="url(#clip30)" filter="url(#fx8)" transform="translate(603 258)"><g><path d="M5.833 0.19C5.149 0.19 4.51883 0.095 3.9425-0.095 3.36617-0.285 2.86583-0.547833 2.4415-0.8835 2.01717-1.21917 1.68783-1.61817 1.4535-2.0805 1.21917-2.54283 1.102-3.04633 1.102-3.591 1.102-4.389 1.3965-5.10467 1.9855-5.738 2.5745-6.37133 3.325-6.79567 4.237-7.011 3.46433-7.22633 2.83417-7.61267 2.3465-8.17 1.85883-8.72733 1.615-9.35433 1.615-10.051 1.615-10.545 1.72267-11.0042 1.938-11.4285 2.15333-11.8528 2.44783-12.217 2.8215-12.521 3.19517-12.825 3.64167-13.0657 4.161-13.243 4.68033-13.4203 5.23767-13.509 5.833-13.509 6.42833-13.509 6.98567-13.4203 7.505-13.243 8.02433-13.0657 8.474-12.825 8.854-12.521 9.234-12.217 9.53167-11.8528 9.747-11.4285 9.96233-11.0042 10.07-10.545 10.07-10.051 10.07-9.35433 9.82617-8.72733 9.3385-8.17 8.85083-7.61267 8.22067-7.22633 7.448-7.011 8.36-6.79567 9.10733-6.3745 9.69-5.7475 10.2727-5.1205 10.564-4.40167 10.564-3.591 10.564-3.04633 10.4468-2.53967 10.2125-2.071 9.97817-1.60233 9.652-1.20333 9.234-0.874 8.816-0.544667 8.31567-0.285 7.733-0.095 7.15033 0.095 6.517 0.19 5.833 0.19ZM5.833-7.581C6.64367-7.581 7.33083-7.81217 7.8945-8.2745 8.45817-8.73683 8.74-9.31 8.74-9.994 8.74-10.678 8.46133-11.2512 7.904-11.7135 7.34667-12.1758 6.65633-12.407 5.833-12.407 5.02233-12.407 4.33833-12.1758 3.781-11.7135 3.22367-11.2512 2.945-10.678 2.945-9.994 2.945-9.31 3.22683-8.73683 3.7905-8.2745 4.35417-7.81217 5.035-7.581 5.833-7.581ZM5.833-0.931C6.783-0.931 7.58417-1.197 8.2365-1.729 8.88883-2.261 9.215-2.91333 9.215-3.686 9.215-4.446 8.88883-5.08883 8.2365-5.6145 7.58417-6.14017 6.783-6.403 5.833-6.403 4.883-6.403 4.08183-6.14017 3.4295-5.6145 2.77717-5.08883 2.451-4.446 2.451-3.686 2.451-2.91333 2.77717-2.261 3.4295-1.729 4.08183-1.197 4.883-0.931 5.833-0.931Z" fill="#FFFFFF" transform="translate(14.864 26)"/></g></g><path d="M588 258 660.868 258 674 278.5 660.868 299 588 299Z" fill="#023290" fill-rule="evenodd"/><text fill="#FFFFFF" font-family="3,3_MSFontService,sans-serif" font-weight="400" font-size="19" transform="translate(616.864 284)">8</text><g clip-path="url(#clip31)" filter="url(#fx9)" transform="translate(516 254)"><g><path d="M4 4 76.8677 4 90 24.5 76.8677 45 4 45Z" fill="#023290" fill-rule="evenodd"/></g></g><g clip-path="url(#clip32)" filter="url(#fx10)" transform="translate(534 258)"><g><path d="M1.938 0 8.55-12.084 0.551-12.084 0.551-13.3 10.032-13.3 10.032-12.236 3.496 0Z" fill="#FFFFFF" transform="translate(14.5638 26)"/></g></g><path d="M519 258 591.868 258 605 278.5 591.868 299 519 299Z" fill="#023290" fill-rule="evenodd"/><text fill="#FFFFFF" font-family="3,3_MSFontService,sans-serif" font-weight="400" font-size="19" transform="translate(547.564 284)">7</text><g clip-path="url(#clip33)" filter="url(#fx11)" transform="translate(446 254)"><g><path d="M4 4 77.8677 4 91 24.5 77.8677 45 4 45Z" fill="#0F9EC5" fill-rule="evenodd"/></g></g><g clip-path="url(#clip34)" filter="url(#fx12)" transform="translate(464 258)"><g><path d="M6.289 0.152C5.529 0.152 4.82917-0.00316667 4.1895-0.3135 3.54983-0.623833 3.002-1.06083 2.546-1.6245 2.09-2.18817 1.73217-2.8595 1.4725-3.6385 1.21283-4.4175 1.083-5.26933 1.083-6.194 1.083-7.28333 1.2255-8.2745 1.5105-9.1675 1.7955-10.0605 2.19767-10.8237 2.717-11.457 3.23633-12.0903 3.86333-12.5812 4.598-12.9295 5.33267-13.2778 6.14967-13.452 7.049-13.452 7.59367-13.452 8.1415-13.3728 8.6925-13.2145 9.2435-13.0562 9.73433-12.8377 10.165-12.559L9.481-11.495C9.08833-11.723 8.6735-11.9003 8.2365-12.027 7.7995-12.1537 7.36567-12.217 6.935-12.217 5.57967-12.217 4.49983-11.6913 3.6955-10.64 2.89117-9.58867 2.47633-8.151 2.451-6.327 2.945-6.96033 3.53717-7.45433 4.2275-7.809 4.91783-8.16367 5.624-8.341 6.346-8.341 6.992-8.341 7.58733-8.2365 8.132-8.0275 8.67667-7.8185 9.14533-7.53033 9.538-7.163 9.93067-6.79567 10.2378-6.35867 10.4595-5.852 10.6812-5.34533 10.792-4.79433 10.792-4.199 10.792-3.57833 10.678-2.99883 10.45-2.4605 10.222-1.92217 9.9085-1.463 9.5095-1.083 9.1105-0.703 8.6355-0.402167 8.0845-0.1805 7.5335 0.0411667 6.935 0.152 6.289 0.152ZM6.156-7.22C5.472-7.22 4.807-7.04583 4.161-6.6975 3.515-6.34917 2.95767-5.871 2.489-5.263 2.62833-3.99633 3.04-2.97667 3.724-2.204 4.408-1.43133 5.25667-1.045 6.27-1.045 7.16933-1.045 7.91983-1.34267 8.5215-1.938 9.12317-2.53333 9.424-3.27433 9.424-4.161 9.424-5.04767 9.11683-5.77917 8.5025-6.3555 7.88817-6.93183 7.106-7.22 6.156-7.22Z" fill="#FFFFFF" transform="translate(15.2636 26)"/></g></g><path d="M449 258 522.868 258 536 278.5 522.868 299 449 299Z" fill="#0F9EC5" fill-rule="evenodd"/><text fill="#FFFFFF" font-family="3,3_MSFontService,sans-serif" font-weight="400" font-size="19" transform="translate(478.264 284)">6</text><g clip-path="url(#clip35)" filter="url(#fx13)" transform="translate(377 254)"><g><path d="M4 4 77.8677 4 91 24.5 77.8677 45 4 45Z" fill="#0F9EC5" fill-rule="evenodd"/></g></g><g clip-path="url(#clip36)" filter="url(#fx14)" transform="translate(395 258)"><g><path d="M1.311-6.65 1.615-13.3 9.177-13.3 9.177-12.103 2.793-12.103 2.584-7.505C3.09067-7.74567 3.57833-7.923 4.047-8.037 4.51567-8.151 5.00967-8.208 5.529-8.208 6.821-8.208 7.86917-7.8375 8.6735-7.0965 9.47783-6.3555 9.88-5.396 9.88-4.218 9.88-2.91333 9.44933-1.8525 8.588-1.0355 7.72667-0.2185 6.60567 0.19 5.225 0.19 4.351 0.19 3.534 0.038 2.774-0.266 2.014-0.57 1.32367-1.01967 0.703-1.615L1.558-2.546C2.14067-2.00133 2.72017-1.6055 3.2965-1.3585 3.87283-1.1115 4.522-0.988 5.244-0.988 6.20667-0.988 6.992-1.2825 7.6-1.8715 8.208-2.4605 8.512-3.22367 8.512-4.161 8.512-5.035 8.208-5.74433 7.6-6.289 6.992-6.83367 6.20667-7.106 5.244-7.106 4.73733-7.106 4.24333-7.04583 3.762-6.9255 3.28067-6.80517 2.78033-6.612 2.261-6.346Z" fill="#FFFFFF" transform="translate(14.9633 26)"/></g></g><path d="M380 258 453.868 258 467 278.5 453.868 299 380 299Z" fill="#0F9EC5" fill-rule="evenodd"/><text fill="#FFFFFF" font-family="3,3_MSFontService,sans-serif" font-weight="400" font-size="19" transform="translate(408.963 284)">5</text><g clip-path="url(#clip37)" filter="url(#fx15)" transform="translate(308 254)"><g><path d="M4 4 76.8677 4 90 24.5 76.8677 45 4 45Z" fill="#0F9EC5" fill-rule="evenodd"/></g></g><g clip-path="url(#clip38)" filter="url(#fx16)" transform="translate(326 258)"><g><path d="M9.272-13.3 9.272-4.75 11.115-4.75 11.115-3.553 9.272-3.553 9.272 0 7.923 0 7.923-3.553 0.741-3.553 0.741-4.636 7.809-13.3ZM2.337-4.75 7.923-4.75 7.923-11.647Z" fill="#FFFFFF" transform="translate(14.6632 26)"/></g></g><path d="M311 258 383.868 258 397 278.5 383.868 299 311 299Z" fill="#0F9EC5" fill-rule="evenodd"/><text fill="#FFFFFF" font-family="3,3_MSFontService,sans-serif" font-weight="400" font-size="19" transform="translate(339.663 284)">4</text><g clip-path="url(#clip39)" filter="url(#fx17)" transform="translate(239 254)"><g><path d="M4 4 76.8677 4 90 24.5 76.8677 45 4 45Z" fill="#0342A9" fill-rule="evenodd"/></g></g><g clip-path="url(#clip40)" filter="url(#fx18)" transform="translate(256 258)"><g><path d="M9.994-3.648C9.994-3.09067 9.87683-2.57767 9.6425-2.109 9.40817-1.64033 9.08517-1.235 8.6735-0.893 8.26183-0.551 7.771-0.285 7.201-0.095 6.631 0.095 6.01033 0.19 5.339 0.19 4.427 0.19 3.57517 0.0316667 2.7835-0.285 1.99183-0.601667 1.292-1.07033 0.684-1.691L1.596-2.584C2.15333-2.02667 2.7265-1.6245 3.3155-1.3775 3.9045-1.1305 4.57267-1.007 5.32-1.007 6.28267-1.007 7.07433-1.25717 7.695-1.7575 8.31567-2.25783 8.626-2.90067 8.626-3.686 8.626-4.408 8.35683-5.00967 7.8185-5.491 7.28017-5.97233 6.593-6.213 5.757-6.213L4.18-6.213 4.18-7.391 5.7-7.391C6.422-7.391 7.00783-7.61267 7.4575-8.056 7.90717-8.49933 8.132-9.07567 8.132-9.785 8.132-10.4817 7.85333-11.0738 7.296-11.5615 6.73867-12.0492 6.05467-12.293 5.244-12.293 4.56-12.293 3.94883-12.1695 3.4105-11.9225 2.87217-11.6755 2.32433-11.2607 1.767-10.678L0.855-11.59C1.45033-12.2107 2.12483-12.6857 2.8785-13.015 3.63217-13.3443 4.427-13.509 5.263-13.509 5.871-13.509 6.43467-13.4172 6.954-13.2335 7.47333-13.0498 7.91983-12.7965 8.2935-12.4735 8.66717-12.1505 8.96167-11.7642 9.177-11.3145 9.39233-10.8648 9.5-10.3803 9.5-9.861 9.5-9.16433 9.272-8.5405 8.816-7.9895 8.36-7.4385 7.75833-7.05533 7.011-6.84 7.89767-6.65 8.6165-6.2605 9.1675-5.6715 9.7185-5.0825 9.994-4.408 9.994-3.648Z" fill="#FFFFFF" transform="translate(15.363 26)"/></g></g><path d="M242 258 314.868 258 328 278.5 314.868 299 242 299Z" fill="#0342A9" fill-rule="evenodd"/><text fill="#FFFFFF" font-family="3,3_MSFontService,sans-serif" font-weight="400" font-size="19" transform="translate(270.363 284)">3</text><g clip-path="url(#clip41)" filter="url(#fx19)" transform="translate(169 254)"><g><path d="M4 4 77.8677 4 91 24.5 77.8677 45 4 45Z" fill="#0342A9" fill-rule="evenodd"/></g></g><g clip-path="url(#clip42)" filter="url(#fx20)" transform="translate(187 258)"><g><path d="M0.95 0 0.95-1.007 6.27-6.821C6.89067-7.505 7.315-8.06867 7.543-8.512 7.771-8.95533 7.885-9.43033 7.885-9.937 7.885-10.5957 7.619-11.1467 7.087-11.59 6.555-12.0333 5.89-12.255 5.092-12.255 4.47133-12.255 3.89183-12.1315 3.3535-11.8845 2.81517-11.6375 2.223-11.2227 1.577-10.64L0.779-11.59C1.463-12.2233 2.16283-12.6952 2.8785-13.0055 3.59417-13.3158 4.33833-13.471 5.111-13.471 6.30167-13.471 7.2865-13.1448 8.0655-12.4925 8.8445-11.8402 9.234-11.0137 9.234-10.013 9.234-9.68367 9.20233-9.37967 9.139-9.101 9.07567-8.82233 8.968-8.53417 8.816-8.2365 8.664-7.93883 8.45817-7.619 8.1985-7.277 7.93883-6.935 7.60633-6.54233 7.201-6.099L2.66-1.178 9.519-1.197 9.519 0Z" fill="#FFFFFF" transform="translate(15.0629 26)"/></g></g><path d="M172 258 245.868 258 259 278.5 245.868 299 172 299Z" fill="#0342A9" fill-rule="evenodd"/><text fill="#FFFFFF" font-family="3,3_MSFontService,sans-serif" font-weight="400" font-size="19" transform="translate(201.063 284)">2</text><g clip-path="url(#clip43)" filter="url(#fx21)" transform="translate(98 254)"><g><path d="M4 4 77.8677 4 91 24.5 77.8677 45 4 45Z" fill="#0342A9" fill-rule="evenodd"/></g></g><g clip-path="url(#clip44)" filter="url(#fx22)" transform="translate(116 258)"><g><path d="M4.275-13.3 4.275 0 2.907 0 2.907-11.818 0.779-10.868 0.779-12.122 3.42-13.3Z" fill="#FFFFFF" transform="translate(15.1358 26)"/></g></g><path d="M101 258 174.868 258 188 278.5 174.868 299 101 299Z" fill="#0342A9" fill-rule="evenodd"/><text fill="#FFFFFF" font-family="3,3_MSFontService,sans-serif" font-weight="400" font-size="19" transform="translate(130.136 284)">1</text><path d="M134 260.846 134 208.5 135 208.5 135 260.846ZM138.5 260.846C138.5 263.056 136.709 264.846 134.5 264.846 132.291 264.846 130.5 263.056 130.5 260.846 130.5 258.637 132.291 256.846 134.5 256.846 136.709 256.846 138.5 258.637 138.5 260.846ZM130.5 208.5C130.5 206.291 132.291 204.5 134.5 204.5 136.709 204.5 138.5 206.291 138.5 208.5 138.5 210.709 136.709 212.5 134.5 212.5 132.291 212.5 130.5 210.709 130.5 208.5Z" fill="#777FA0"/><text fill="#DDE0EB" font-family="3,3_MSFontService,sans-serif" font-weight="400" font-size="21" transform="translate(129.591 175)">Obtain the</text><text fill="#DDE0EB" font-family="3,3_MSFontService,sans-serif" font-weight="400" font-size="21" transform="translate(129.591 200)">dataset</text><path d="M273 260.846 273 208.5 274 208.5 274 260.846ZM277.5 260.846C277.5 263.056 275.709 264.846 273.5 264.846 271.291 264.846 269.5 263.056 269.5 260.846 269.5 258.637 271.291 256.846 273.5 256.846 275.709 256.846 277.5 258.637 277.5 260.846ZM269.5 208.5C269.5 206.291 271.291 204.5 273.5 204.5 275.709 204.5 277.5 206.291 277.5 208.5 277.5 210.709 275.709 212.5 273.5 212.5 271.291 212.5 269.5 210.709 269.5 208.5Z" fill="#777FA0"/><text fill="#DDE0EB" font-family="3,3_MSFontService,sans-serif" font-weight="400" font-size="19" transform="translate(267.67 172)">Describe Node</text><text fill="#DDE0EB" font-family="3,3_MSFontService,sans-serif" font-weight="400" font-size="19" transform="translate(267.67 195)">Embeddings</text><path d="M411 260.846 411 208.5 412 208.5 412 260.846ZM415.5 260.846C415.5 263.056 413.709 264.846 411.5 264.846 409.291 264.846 407.5 263.056 407.5 260.846 407.5 258.637 409.291 256.846 411.5 256.846 413.709 256.846 415.5 258.637 415.5 260.846ZM407.5 208.5C407.5 206.291 409.291 204.5 411.5 204.5 413.709 204.5 415.5 206.291 415.5 208.5 415.5 210.709 413.709 212.5 411.5 212.5 409.291 212.5 407.5 210.709 407.5 208.5Z" fill="#777FA0"/><text fill="#DDE0EB" font-family="3,3_MSFontService,sans-serif" font-weight="400" font-size="19" transform="translate(406.541 172)">Setup the</text><text fill="#DDE0EB" font-family="3,3_MSFontService,sans-serif" font-weight="400" font-size="19" transform="translate(406.541 195)">model pipeline</text><path d="M550 260.846 550 208.5 551 208.5 551 260.846ZM554.5 260.846C554.5 263.056 552.709 264.846 550.5 264.846 548.291 264.846 546.5 263.056 546.5 260.846 546.5 258.637 548.291 256.846 550.5 256.846 552.709 256.846 554.5 258.637 554.5 260.846ZM546.5 208.5C546.5 206.291 548.291 204.5 550.5 204.5 552.709 204.5 554.5 206.291 554.5 208.5 554.5 210.709 552.709 212.5 550.5 212.5 548.291 212.5 546.5 210.709 546.5 208.5Z" fill="#777FA0"/><text fill="#DDE0EB" font-family="3,3_MSFontService,sans-serif" font-weight="400" font-size="19" transform="translate(545.411 150)">Setup Node</text><text fill="#DDE0EB" font-family="3,3_MSFontService,sans-serif" font-weight="400" font-size="19" transform="translate(545.411 173)">Embedding</text><text fill="#DDE0EB" font-family="3,3_MSFontService,sans-serif" font-weight="400" font-size="19" transform="translate(545.411 195)">Transforms</text><path d="M689 260.846 689 208.5 690 208.5 690 260.846ZM693.5 260.846C693.5 263.056 691.709 264.846 689.5 264.846 687.291 264.846 685.5 263.056 685.5 260.846 685.5 258.637 687.291 256.846 689.5 256.846 691.709 256.846 693.5 258.637 693.5 260.846ZM685.5 208.5C685.5 206.291 687.291 204.5 689.5 204.5 691.709 204.5 693.5 206.291 693.5 208.5 693.5 210.709 691.709 212.5 689.5 212.5 687.291 212.5 685.5 210.709 685.5 208.5Z" fill="#777FA0"/><text fill="#DDE0EB" font-family="3,3_MSFontService,sans-serif" font-weight="400" font-size="19" transform="translate(684.282 172)">Setup GCNN</text><text fill="#DDE0EB" font-family="3,3_MSFontService,sans-serif" font-weight="400" font-size="19" transform="translate(684.282 195)">Layers</text><path d="M204 349.846 204 297.5 205 297.5 205 349.846ZM208.5 349.846C208.5 352.056 206.709 353.846 204.5 353.846 202.291 353.846 200.5 352.056 200.5 349.846 200.5 347.637 202.291 345.846 204.5 345.846 206.709 345.846 208.5 347.637 208.5 349.846ZM200.5 297.5C200.5 295.291 202.291 293.5 204.5 293.5 206.709 293.5 208.5 295.291 208.5 297.5 208.5 299.709 206.709 301.5 204.5 301.5 202.291 301.5 200.5 299.709 200.5 297.5Z" fill="#777FA0"/><text fill="#DDE0EB" font-family="3,3_MSFontService,sans-serif" font-weight="400" font-size="19" transform="translate(200.473 377)">Clean</text><text fill="#DDE0EB" font-family="3,3_MSFontService,sans-serif" font-weight="400" font-size="19" transform="translate(200.473 400)">and</text><text fill="#DDE0EB" font-family="3,3_MSFontService,sans-serif" font-weight="400" font-size="19" transform="translate(200.473 422)">Preproces</text><text fill="#DDE0EB" font-family="3,3_MSFontService,sans-serif" font-weight="400" font-size="19" transform="translate(285.973 422)">s</text><path d="M343 349.846 343 297.5 344 297.5 344 349.846ZM347.5 349.846C347.5 352.056 345.709 353.846 343.5 353.846 341.291 353.846 339.5 352.056 339.5 349.846 339.5 347.637 341.291 345.846 343.5 345.846 345.709 345.846 347.5 347.637 347.5 349.846ZM339.5 297.5C339.5 295.291 341.291 293.5 343.5 293.5 345.709 293.5 347.5 295.291 347.5 297.5 347.5 299.709 345.709 301.5 343.5 301.5 341.291 301.5 339.5 299.709 339.5 297.5Z" fill="#777FA0"/><text fill="#DDE0EB" font-family="3,3_MSFontService,sans-serif" font-weight="400" font-size="19" transform="translate(340.147 377)">Featurize</text><text fill="#DDE0EB" font-family="3,3_MSFontService,sans-serif" font-weight="400" font-size="19" transform="translate(422.813 377)">Edge</text><text fill="#DDE0EB" font-family="3,3_MSFontService,sans-serif" font-weight="400" font-size="19" transform="translate(340.147 400)">Embeddings</text><path d="M482 349.846 482 297.5 483 297.5 483 349.846ZM486.5 349.846C486.5 352.056 484.709 353.846 482.5 353.846 480.291 353.846 478.5 352.056 478.5 349.846 478.5 347.637 480.291 345.846 482.5 345.846 484.709 345.846 486.5 347.637 486.5 349.846ZM478.5 297.5C478.5 295.291 480.291 293.5 482.5 293.5 484.709 293.5 486.5 295.291 486.5 297.5 486.5 299.709 484.709 301.5 482.5 301.5 480.291 301.5 478.5 299.709 478.5 297.5Z" fill="#777FA0"/><text fill="#DDE0EB" font-family="3,3_MSFontService,sans-serif" font-weight="400" font-size="19" transform="translate(479.821 377)">Create a</text><text fill="#DDE0EB" font-family="3,3_MSFontService,sans-serif" font-weight="400" font-size="19" transform="translate(479.821 400)">custom</text><text fill="#DDE0EB" font-family="3,3_MSFontService,sans-serif" font-weight="400" font-size="19" transform="translate(479.821 422)">PyTorch</text><text fill="#DDE0EB" font-family="3,3_MSFontService,sans-serif" font-weight="400" font-size="19" transform="translate(479.821 444)">Dataset</text><path d="M620 349.846 620 297.5 621 297.5 621 349.846ZM624.5 349.846C624.5 352.056 622.709 353.846 620.5 353.846 618.291 353.846 616.5 352.056 616.5 349.846 616.5 347.637 618.291 345.846 620.5 345.846 622.709 345.846 624.5 347.637 624.5 349.846ZM616.5 297.5C616.5 295.291 618.291 293.5 620.5 293.5 622.709 293.5 624.5 295.291 624.5 297.5 624.5 299.709 622.709 301.5 620.5 301.5 618.291 301.5 616.5 299.709 616.5 297.5Z" fill="#777FA0"/><text fill="#DDE0EB" font-family="3,3_MSFontService,sans-serif" font-weight="400" font-size="19" transform="translate(619.495 377)">Incorporate</text><text fill="#DDE0EB" font-family="3,3_MSFontService,sans-serif" font-weight="400" font-size="19" transform="translate(619.495 400)">Negative</text><text fill="#DDE0EB" font-family="3,3_MSFontService,sans-serif" font-weight="400" font-size="19" transform="translate(619.495 422)">Sampling and</text><text fill="#DDE0EB" font-family="3,3_MSFontService,sans-serif" font-weight="400" font-size="19" transform="translate(619.495 444)">Random Splits</text><path d="M759 349.846 759 297.5 760 297.5 760 349.846ZM763.5 349.846C763.5 352.056 761.709 353.846 759.5 353.846 757.291 353.846 755.5 352.056 755.5 349.846 755.5 347.637 757.291 345.846 759.5 345.846 761.709 345.846 763.5 347.637 763.5 349.846ZM755.5 297.5C755.5 295.291 757.291 293.5 759.5 293.5 761.709 293.5 763.5 295.291 763.5 297.5 763.5 299.709 761.709 301.5 759.5 301.5 757.291 301.5 755.5 299.709 755.5 297.5Z" fill="#777FA0"/><text fill="#DDE0EB" font-family="3,3_MSFontService,sans-serif" font-weight="400" font-size="19" transform="translate(759.169 377)">Evaluate with</text><text fill="#DDE0EB" font-family="3,3_MSFontService,sans-serif" font-weight="400" font-size="19" transform="translate(759.169 400)">AUC and ROC</text></g></svg>