<svg width="960" height="540" xmlns="http://www.w3.org/2000/svg" xmlns:xlink="http://www.w3.org/1999/xlink" overflow="hidden"><defs><filter id="fx0" x="-10%" y="-10%" width="120%" height="120%" filterUnits="userSpaceOnUse" primitiveUnits="userSpaceOnUse"><feComponentTransfer color-interpolation-filters="sRGB"><feFuncR type="discrete" tableValues="0.00392157 0.00392157"/><feFuncG type="discrete" tableValues="0.0196078 0.0196078"/><feFuncB type="discrete" tableValues="0.054902 0.054902"/><feFuncA type="linear" slope="0.501961" intercept="0"/></feComponentTransfer><feGaussianBlur stdDeviation="7.15716 7.14286"/></filter><filter id="fx1" x="-10%" y="-10%" width="120%" height="120%" filterUnits="userSpaceOnUse" primitiveUnits="userSpaceOnUse"><feComponentTransfer color-interpolation-filters="sRGB"><feFuncR type="discrete" tableValues="0.00392157 0.00392157"/><feFuncG type="discrete" tableValues="0.0196078 0.0196078"/><feFuncB type="discrete" tableValues="0.054902 0.054902"/><feFuncA type="linear" slope="0.501961" intercept="0"/></feComponentTransfer><feGaussianBlur stdDeviation="7.1161 7.16934"/></filter><filter id="fx2" x="-10%" y="-10%" width="120%" height="120%" filterUnits="userSpaceOnUse" primitiveUnits="userSpaceOnUse"><feComponentTransfer color-interpolation-filters="sRGB"><feFuncR type="discrete" tableValues="0.00392157 0.00392157"/><feFuncG type="discrete" tableValues="0.0196078 0.0196078"/><feFuncB type="discrete" tableValues="0.054902 0.054902"/><feFuncA type="linear" slope="0.501961" intercept="0"/></feComponentTransfer><feGaussianBlur stdDeviation="7.13101 7.13115"/></filter><clipPath id="clip3"><rect x="0" y="0" width="960" height="540"/></clipPath><clipPath id="clip4"><rect x="0" y="0" width="143" height="120"/></clipPath></defs><g clip-path="url(#clip3)"><rect x="0" y="0" width="960" height="540" fill="#01135D"/><g filter="url(#fx0)" transform="matrix(6.98601 0 0 7 -150 -150)"><g clip-path="url(#clip4)" transform="translate(-3.55271e-15 0)"><path d="M21.4715 98.5714 21.4715 93.8678C40.4352 93.135 58.2198 85.2991 71.5516 71.8009 84.8978 58.2891 92.4925 40.4011 92.9402 21.4286L121.385 21.4286C121.259 29.0183 120.293 36.5709 118.506 43.9494 116.765 51.1151 114.251 58.0716 111.009 64.6972 107.814 71.2194 103.937 77.3857 99.441 83.0928 94.9681 88.764 89.9128 93.9522 84.357 98.5714Z" fill="#022376" fill-rule="evenodd"/></g></g><path d="M0 540 0 507.075C132.481 501.945 256.724 447.094 349.861 352.606 443.097 258.024 496.154 132.808 499.281 0L698 0C697.114 53.1282 690.368 105.997 677.887 157.646 665.722 207.806 648.161 256.501 625.512 302.88 603.192 348.536 576.103 391.7 544.696 431.65 513.449 471.348 478.132 507.665 439.319 540Z" fill="#022376" fill-rule="evenodd"/><g filter="url(#fx1)" transform="matrix(7.02632 0 0 6.97414 -150 -150)"><g><path d="M21.3483 65.7855C32.6517 65.0728 43.2893 60.1524 51.196 51.9796 59.1344 43.8029 63.768 32.9401 64.1939 21.508L92.5094 21.508C92.0631 40.5851 84.4993 58.5727 71.2122 72.1591 57.9395 85.734 40.2329 93.611 21.3483 94.3486Z" fill="#023290" fill-rule="evenodd"/></g></g><path d="M0 308.797C79.4214 303.827 154.164 269.511 209.719 212.513 265.497 155.488 298.054 79.7289 301.046 0L500 0C496.865 133.046 443.719 258.494 350.36 353.248 257.101 447.921 132.689 502.856 0 508Z" fill="#023290" fill-rule="evenodd"/><g filter="url(#fx2)" transform="matrix(7.01163 0 0 7.01149 -150 -150)"><g><path d="M21.393 21.3934 64.4644 21.3934C64.0355 32.7719 59.3769 43.5835 51.3963 51.7217 43.4486 59.8563 32.7556 64.7539 21.393 65.4639Z" fill="#0342A9" fill-rule="evenodd"/></g></g><path d="M0 0 302 0C298.993 79.78 266.329 155.586 210.372 212.647 154.646 269.682 79.6704 304.022 0 309Z" fill="#0342A9" fill-rule="evenodd"/><text fill="#FFFFFF" font-family="3,3_MSFontService,sans-serif" font-weight="400" font-size="21" transform="translate(57.1604 123)">Node</text><text fill="#FFFFFF" font-family="3,3_MSFontService,sans-serif" font-weight="400" font-size="21" transform="translate(114.494 123)">Similarity</text><text fill="#FFFFFF" font-family="3,3_MSFontService,sans-serif" font-weight="400" font-size="21" transform="translate(207.494 123)">Embedding</text><text fill="#DDE0EB" font-family="Wingdings,Wingdings_MSFontService,sans-serif" font-weight="400" font-size="27" transform="translate(57.1604 164)"></text><text fill="#FFFFFF" font-family="3,3_MSFontService,sans-serif" font-weight="400" font-size="21" transform="translate(87.1604 164)">Katz Index/</text><text fill="#FFFFFF" font-family="3,3_MSFontService,sans-serif" font-weight="400" font-size="21" transform="translate(200.827 164)">Adamic</text><text fill="#FFFFFF" font-family="3,3_MSFontService,sans-serif" font-weight="400" font-size="21" transform="translate(271.994 164)">-</text><text fill="#FFFFFF" font-family="3,3_MSFontService,sans-serif" font-weight="400" font-size="21" transform="translate(281.66 164)">Adar</text><text fill="#FFFFFF" font-family="3,3_MSFontService,sans-serif" font-weight="400" font-size="21" transform="translate(331.66 164)">Index</text><text fill="#DDE0EB" font-family="Wingdings,Wingdings_MSFontService,sans-serif" font-weight="400" font-size="27" transform="translate(57.1604 206)"></text><text fill="#FFFFFF" font-family="3,3_MSFontService,sans-serif" font-weight="400" font-size="21" transform="translate(87.1604 206)">Eigenvector/Betweennes Centrality</text><text fill="#FFFFFF" font-family="3,3_MSFontService,sans-serif" font-weight="400" font-size="21" transform="translate(57.1604 248)">Link</text><text fill="#FFFFFF" font-family="3,3_MSFontService,sans-serif" font-weight="400" font-size="21" transform="translate(102.327 248)">Based Features</text><text fill="#DDE0EB" font-family="Wingdings,Wingdings_MSFontService,sans-serif" font-weight="400" font-size="27" transform="translate(57.1604 289)"></text><text fill="#FFFFFF" font-family="3,3_MSFontService,sans-serif" font-weight="400" font-size="21" transform="translate(87.1604 289)">Simple Common Neighbours</text><text fill="#DDE0EB" font-family="Wingdings,Wingdings_MSFontService,sans-serif" font-weight="400" font-size="27" transform="translate(57.1604 331)"></text><text fill="#FFFFFF" font-family="3,3_MSFontService,sans-serif" font-weight="400" font-size="21" transform="translate(87.1604 331)">Jaccard’s Coefficient</text><text fill="#FFFFFF" font-family="3,3_MSFontService,sans-serif" font-weight="400" font-size="21" transform="translate(57.1604 372)">Graph</text><text fill="#FFFFFF" font-family="3,3_MSFontService,sans-serif" font-weight="400" font-size="21" transform="translate(122.16 372)">Based</text><text fill="#FFFFFF" font-family="3,3_MSFontService,sans-serif" font-weight="400" font-size="21" transform="translate(186.494 372)">Prediction</text><text fill="#DDE0EB" font-family="Wingdings,Wingdings_MSFontService,sans-serif" font-weight="400" font-size="27" transform="translate(57.1604 414)"></text><text fill="#FFFFFF" font-family="3,3_MSFontService,sans-serif" font-weight="400" font-size="21" transform="translate(87.1604 414)">Weisfeiler Lehman</text><text fill="#FFFFFF" font-family="3,3_MSFontService,sans-serif" font-weight="400" font-size="21" transform="translate(268.994 414)">Kernel</text><text fill="#DDE0EB" font-family="Wingdings,Wingdings_MSFontService,sans-serif" font-weight="400" font-size="27" transform="translate(57.1604 456)"></text><text fill="#FFFFFF" font-family="3,3_MSFontService,sans-serif" font-weight="400" font-size="21" transform="translate(87.1604 456)">Aggregational</text><text fill="#FFFFFF" font-family="3,3_MSFontService,sans-serif" font-weight="400" font-size="21" transform="translate(226.66 456)">Graph</text><text fill="#FFFFFF" font-family="3,3_MSFontService,sans-serif" font-weight="400" font-size="21" transform="translate(291.66 456)">representation Learning</text><text fill="#FFFFFF" font-family="1,1_MSFontService,sans-serif" font-weight="900" font-size="43" transform="translate(57.1604 62)">GNNs for Recommender Systems</text><text fill="#FFFFFF" font-family="3,3_MSFontService,sans-serif" font-weight="400" font-size="17" transform="translate(937.183 525)">4</text><text fill="#DDE0EB" font-family="Wingdings,Wingdings_MSFontService,sans-serif" font-weight="400" font-size="27" transform="translate(534.545 123)"></text><text fill="#FFFFFF" font-family="3,3_MSFontService,sans-serif" font-weight="400" font-size="21" transform="translate(564.545 123)">node2Vec (Used Everywhere)</text><text fill="#DDE0EB" font-family="Wingdings,Wingdings_MSFontService,sans-serif" font-weight="400" font-size="27" transform="translate(534.545 164)"></text><text fill="#FFFFFF" font-family="3,3_MSFontService,sans-serif" font-weight="400" font-size="21" transform="translate(564.545 164)">Random Walk Strategies</text><text fill="#FFFFFF" font-family="3,3_MSFontService,sans-serif" font-weight="400" font-size="21" transform="translate(803.212 164)">-</text><text fill="#FFFFFF" font-family="3,3_MSFontService,sans-serif" font-weight="400" font-size="21" transform="translate(817.879 164)">Deepwalk</text><text fill="#DDE0EB" font-family="Wingdings,Wingdings_MSFontService,sans-serif" font-weight="400" font-size="27" transform="translate(534.545 206)"></text><text fill="#FFFFFF" font-family="3,3_MSFontService,sans-serif" font-weight="400" font-size="21" transform="translate(564.545 206)">Noise Contrastive Estimation</text><text fill="#DDE0EB" font-family="Wingdings,Wingdings_MSFontService,sans-serif" font-weight="400" font-size="27" transform="translate(534.545 289)"></text><text fill="#FFFFFF" font-family="3,3_MSFontService,sans-serif" font-weight="400" font-size="21" transform="translate(564.545 289)">Adamic</text><text fill="#FFFFFF" font-family="3,3_MSFontService,sans-serif" font-weight="400" font-size="21" transform="translate(635.712 289)">-</text><text fill="#FFFFFF" font-family="3,3_MSFontService,sans-serif" font-weight="400" font-size="21" transform="translate(645.379 289)">Adar Index</text><text fill="#DDE0EB" font-family="Wingdings,Wingdings_MSFontService,sans-serif" font-weight="400" font-size="27" transform="translate(534.545 331)"></text><text fill="#FFFFFF" font-family="3,3_MSFontService,sans-serif" font-weight="400" font-size="21" transform="translate(564.545 331)">Katz Index</text><text fill="#DDE0EB" font-family="Wingdings,Wingdings_MSFontService,sans-serif" font-weight="400" font-size="27" transform="translate(534.545 414)"></text><text fill="#FFFFFF" font-family="3,3_MSFontService,sans-serif" font-weight="400" font-size="21" transform="translate(564.545 414)">Bag</text><text fill="#FFFFFF" font-family="3,3_MSFontService,sans-serif" font-weight="400" font-size="21" transform="translate(602.379 414)">-</text><text fill="#FFFFFF" font-family="3,3_MSFontService,sans-serif" font-weight="400" font-size="21" transform="translate(612.045 414)">of</text><text fill="#FFFFFF" font-family="3,3_MSFontService,sans-serif" font-weight="400" font-size="21" transform="translate(632.212 414)">-</text><text fill="#FFFFFF" font-family="3,3_MSFontService,sans-serif" font-weight="400" font-size="21" transform="translate(641.879 414)">Graphlets Kernel</text><text fill="#DDE0EB" font-family="Wingdings,Wingdings_MSFontService,sans-serif" font-weight="400" font-size="27" transform="translate(534.545 456)"></text><text fill="#FFFFFF" font-family="3,3_MSFontService,sans-serif" font-weight="400" font-size="21" transform="translate(564.545 456)">Bag</text><text fill="#FFFFFF" font-family="3,3_MSFontService,sans-serif" font-weight="400" font-size="21" transform="translate(602.379 456)">-</text><text fill="#FFFFFF" font-family="3,3_MSFontService,sans-serif" font-weight="400" font-size="21" transform="translate(612.045 456)">of</text><text fill="#FFFFFF" font-family="3,3_MSFontService,sans-serif" font-weight="400" font-size="21" transform="translate(632.212 456)">-</text><text fill="#FFFFFF" font-family="3,3_MSFontService,sans-serif" font-weight="400" font-size="21" transform="translate(641.879 456)">Node</text><text fill="#FFFFFF" font-family="3,3_MSFontService,sans-serif" font-weight="400" font-size="21" transform="translate(694.212 456)">-</text><text fill="#FFFFFF" font-family="3,3_MSFontService,sans-serif" font-weight="400" font-size="21" transform="translate(703.879 456)">Degrees</text><text fill="#FFFFFF" font-family="3,3_MSFontService,sans-serif" font-weight="400" font-size="21" transform="translate(789.379 456)">Kerne</text><text fill="#FFFFFF" font-family="3,3_MSFontService,sans-serif" font-weight="400" font-size="21" transform="translate(845.379 456)">l</text><path d="M43.5001 115.167C43.5001 103.753 52.753 94.5001 64.1671 94.5001L914.833 94.5001C926.247 94.5001 935.5 103.753 935.5 115.167L935.5 197.833C935.5 209.247 926.247 218.5 914.833 218.5L64.1671 218.5C52.753 218.5 43.5001 209.247 43.5001 197.833Z" stroke="#FFFFFF" stroke-width="2.66667" stroke-linejoin="round" stroke-miterlimit="10" fill="none" fill-rule="evenodd"/><path d="M43.5001 239.167C43.5001 227.753 52.753 218.5 64.1671 218.5L914.833 218.5C926.247 218.5 935.5 227.753 935.5 239.167L935.5 321.833C935.5 333.247 926.247 342.5 914.833 342.5L64.1671 342.5C52.753 342.5 43.5001 333.247 43.5001 321.833Z" stroke="#FFFFFF" stroke-width="2.66667" stroke-linejoin="round" stroke-miterlimit="10" fill="none" fill-rule="evenodd"/><path d="M43.5001 367C43.5001 354.021 54.0213 343.5 66.9999 343.5L912 343.5C924.979 343.5 935.5 354.021 935.5 367L935.5 461C935.5 473.979 924.979 484.5 912 484.5L66.9999 484.5C54.0213 484.5 43.5001 473.979 43.5001 461Z" stroke="#FFFFFF" stroke-width="2.66667" stroke-linejoin="round" stroke-miterlimit="10" fill="none" fill-rule="evenodd"/></g></svg>