<svg width="960" height="540" xmlns="http://www.w3.org/2000/svg" xmlns:xlink="http://www.w3.org/1999/xlink" overflow="hidden"><defs><filter id="fx0" x="-10%" y="-10%" width="120%" height="120%" filterUnits="userSpaceOnUse" primitiveUnits="userSpaceOnUse"><feComponentTransfer color-interpolation-filters="sRGB"><feFuncR type="discrete" tableValues="0.00392157 0.00392157"/><feFuncG type="discrete" tableValues="0.0196078 0.0196078"/><feFuncB type="discrete" tableValues="0.054902 0.054902"/><feFuncA type="linear" slope="0.501961" intercept="0"/></feComponentTransfer><feGaussianBlur stdDeviation="7.15716 7.14286"/></filter><filter id="fx1" x="-10%" y="-10%" width="120%" height="120%" filterUnits="userSpaceOnUse" primitiveUnits="userSpaceOnUse"><feComponentTransfer color-interpolation-filters="sRGB"><feFuncR type="discrete" tableValues="0.00392157 0.00392157"/><feFuncG type="discrete" tableValues="0.0196078 0.0196078"/><feFuncB type="discrete" tableValues="0.054902 0.054902"/><feFuncA type="linear" slope="0.501961" intercept="0"/></feComponentTransfer><feGaussianBlur stdDeviation="7.1161 7.16934"/></filter><filter id="fx2" x="-10%" y="-10%" width="120%" height="120%" filterUnits="userSpaceOnUse" primitiveUnits="userSpaceOnUse"><feComponentTransfer color-interpolation-filters="sRGB"><feFuncR type="discrete" tableValues="0.00392157 0.00392157"/><feFuncG type="discrete" tableValues="0.0196078 0.0196078"/><feFuncB type="discrete" tableValues="0.054902 0.054902"/><feFuncA type="linear" slope="0.501961" intercept="0"/></feComponentTransfer><feGaussianBlur stdDeviation="7.13101 7.13115"/></filter><clipPath id="clip3"><rect x="0" y="0" width="960" height="540"/></clipPath><clipPath id="clip4"><rect x="0" y="0" width="143" height="120"/></clipPath></defs><g clip-path="url(#clip3)"><rect x="0" y="0" width="960" height="540" fill="#01135D"/><g filter="url(#fx0)" transform="matrix(6.98601 0 0 7 -150 -150)"><g clip-path="url(#clip4)" transform="translate(-3.55271e-15 0)"><path d="M21.4715 98.5714 21.4715 93.8678C40.4352 93.135 58.2198 85.2991 71.5516 71.8009 84.8978 58.2891 92.4925 40.4011 92.9402 21.4286L121.385 21.4286C121.259 29.0183 120.293 36.5709 118.506 43.9494 116.765 51.1151 114.251 58.0716 111.009 64.6972 107.814 71.2194 103.937 77.3857 99.441 83.0928 94.9681 88.764 89.9128 93.9522 84.357 98.5714Z" fill="#022376" fill-rule="evenodd"/></g></g><path d="M0 540 0 507.075C132.481 501.945 256.724 447.094 349.861 352.606 443.097 258.024 496.154 132.808 499.281 0L698 0C697.114 53.1282 690.368 105.997 677.887 157.646 665.722 207.806 648.161 256.501 625.512 302.88 603.192 348.536 576.103 391.7 544.696 431.65 513.449 471.348 478.132 507.665 439.319 540Z" fill="#022376" fill-rule="evenodd"/><g filter="url(#fx1)" transform="matrix(7.02632 0 0 6.97414 -150 -150)"><g><path d="M21.3483 65.7855C32.6517 65.0728 43.2893 60.1524 51.196 51.9796 59.1344 43.8029 63.768 32.9401 64.1939 21.508L92.5094 21.508C92.0631 40.5851 84.4993 58.5727 71.2122 72.1591 57.9395 85.734 40.2329 93.611 21.3483 94.3486Z" fill="#023290" fill-rule="evenodd"/></g></g><path d="M0 308.797C79.4214 303.827 154.164 269.511 209.719 212.513 265.497 155.488 298.054 79.7289 301.046 0L500 0C496.865 133.046 443.719 258.494 350.36 353.248 257.101 447.921 132.689 502.856 0 508Z" fill="#023290" fill-rule="evenodd"/><g filter="url(#fx2)" transform="matrix(7.01163 0 0 7.01149 -150 -150)"><g><path d="M21.393 21.3934 64.4644 21.3934C64.0355 32.7719 59.3769 43.5835 51.3963 51.7217 43.4486 59.8563 32.7556 64.7539 21.393 65.4639Z" fill="#0342A9" fill-rule="evenodd"/></g></g><path d="M0 0 302 0C298.993 79.78 266.329 155.586 210.372 212.647 154.646 269.682 79.6704 304.022 0 309Z" fill="#0342A9" fill-rule="evenodd"/><text fill="#FFFFFF" font-family="1,1_MSFontService,sans-serif" font-weight="900" font-size="64" transform="translate(89.7953 137)">~51,000 GAMES</text><text fill="#FFFFFF" font-family="3,3_MSFontService,sans-serif" font-weight="400" font-size="32" transform="translate(89.7953 182)">That’s a lot of</text><text fill="#FFFFFF" font-family="3,3_MSFontService,sans-serif" font-weight="400" font-size="32" transform="translate(292.962 182)">game</text><text fill="#FFFFFF" font-family="3,3_MSFontService,sans-serif" font-weight="400" font-size="32" transform="translate(373.295 182)">s</text><text fill="#FFFFFF" font-family="1,1_MSFontService,sans-serif" font-weight="900" font-size="64" transform="translate(89.7953 413)">More than 1 billion edges</text><text fill="#FFFFFF" font-family="1,1_MSFontService,sans-serif" font-weight="900" font-size="64" transform="translate(89.7953 275)">~ 500 genres</text><text fill="#FFFFFF" font-family="3,3_MSFontService,sans-serif" font-weight="400" font-size="32" transform="translate(89.7953 320)">And a lot</text><text fill="#FFFFFF" font-family="3,3_MSFontService,sans-serif" font-weight="400" font-size="32" transform="translate(224.629 320)">of</text><text fill="#FFFFFF" font-family="3,3_MSFontService,sans-serif" font-weight="400" font-size="32" transform="translate(262.629 320)">genres</text><text fill="#FFFFFF" font-family="3,3_MSFontService,sans-serif" font-weight="400" font-size="17" transform="translate(938.183 525)">7</text></g></svg>